<svg width="23" height="23" viewBox="0 0 23 23" fill="none" xmlns="http://www.w3.org/2000/svg">
<g clip-path="url(#clip0_9501_3280)">
<path d="M6.45605 17.1982C5.44772 17.1982 4.63189 18.0232 4.63189 19.0315C4.63189 20.0398 5.44772 20.8648 6.45605 20.8648C7.46439 20.8648 8.28939 20.0398 8.28939 19.0315C8.28939 18.0232 7.46439 17.1982 6.45605 17.1982ZM0.956055 2.53149V4.36483H2.78939L6.08939 11.3223L4.85189 13.5682C4.70522 13.8248 4.62272 14.1273 4.62272 14.4482C4.62272 15.4565 5.44772 16.2815 6.45605 16.2815H17.4561V14.4482H6.84105C6.71272 14.4482 6.61189 14.3473 6.61189 14.219L6.63939 14.109L7.46439 12.6148H14.2936C14.9811 12.6148 15.5861 12.239 15.8977 11.6707L19.1794 5.72149C19.2527 5.59316 19.2894 5.43733 19.2894 5.28149C19.2894 4.77733 18.8769 4.36483 18.3727 4.36483H4.81522L3.95355 2.53149H0.956055ZM15.6227 17.1982C14.6144 17.1982 13.7986 18.0232 13.7986 19.0315C13.7986 20.0398 14.6144 20.8648 15.6227 20.8648C16.6311 20.8648 17.4561 20.0398 17.4561 19.0315C17.4561 18.0232 16.6311 17.1982 15.6227 17.1982Z" fill="white"/>
</g>
<defs>
<clipPath id="clip0_9501_3280">
<rect width="22" height="22" fill="white" transform="translate(0.0390625 0.698242)"/>
</clipPath>
</defs>
</svg>
