<svg width="100" height="100" viewBox="0 0 100 100" fill="none" xmlns="http://www.w3.org/2000/svg">
<rect width="100" height="100" rx="50" fill="#ECF0EF"/>
<path d="M49.9998 24.6665C53.3592 24.6665 56.5811 26.001 58.9565 28.3765C61.332 30.7519 62.6665 33.9738 62.6665 37.3332C62.6665 40.6926 61.332 43.9144 58.9565 46.2899C56.5811 48.6653 53.3592 49.9998 49.9998 49.9998C46.6404 49.9998 43.4186 48.6653 41.0431 46.2899C38.6677 43.9144 37.3332 40.6926 37.3332 37.3332C37.3332 33.9738 38.6677 30.7519 41.0431 28.3765C43.4186 26.001 46.6404 24.6665 49.9998 24.6665ZM49.9998 56.3332C63.9965 56.3332 75.3332 62.0015 75.3332 68.9998V75.3332H24.6665V68.9998C24.6665 62.0015 36.0032 56.3332 49.9998 56.3332Z" fill="#B6C4C1"/>
</svg>
