<svg width="25" height="25" viewBox="0 0 25 25" fill="none" xmlns="http://www.w3.org/2000/svg">
<path d="M18.372 14.0599C19.2806 14.0599 20.0802 13.5615 20.4921 12.8079L24.8291 4.91871C25.2774 4.11643 24.6959 3.11965 23.7751 3.11965H5.8454L4.70662 0.688477H0.745117V3.11965H3.16806L7.52934 12.3459L5.89386 15.312C5.00949 16.9409 6.1725 18.9223 8.01393 18.9223H22.5516V16.4911H8.01393L9.34655 14.0599H18.372ZM6.9963 5.55082H21.7156L18.372 11.6287H9.86748L6.9963 5.55082ZM8.01393 20.1378C6.68132 20.1378 5.60311 21.2319 5.60311 22.569C5.60311 23.9062 6.68132 25.0002 8.01393 25.0002C9.34655 25.0002 10.4369 23.9062 10.4369 22.569C10.4369 21.2319 9.34655 20.1378 8.01393 20.1378ZM20.1286 20.1378C18.796 20.1378 17.7178 21.2319 17.7178 22.569C17.7178 23.9062 18.796 25.0002 20.1286 25.0002C21.4612 25.0002 22.5516 23.9062 22.5516 22.569C22.5516 21.2319 21.4612 20.1378 20.1286 20.1378Z" fill="#4EC690"/>
</svg>
