<svg width="25" height="25" viewBox="0 0 25 25" fill="none" xmlns="http://www.w3.org/2000/svg">
<path d="M12.3989 0.688477C5.71156 0.688477 0.28418 6.1343 0.28418 12.8443C0.28418 19.5544 5.71156 25.0002 12.3989 25.0002C19.0862 25.0002 24.5136 19.5544 24.5136 12.8443C24.5136 6.1343 19.0862 0.688477 12.3989 0.688477ZM12.3989 22.569C7.05629 22.569 2.70712 18.2051 2.70712 12.8443C2.70712 7.4836 7.05629 3.11965 12.3989 3.11965C17.7415 3.11965 22.0906 7.4836 22.0906 12.8443C22.0906 18.2051 17.7415 22.569 12.3989 22.569ZM12.7744 11.7989C10.6301 11.2519 9.93959 10.6563 9.93959 9.7689C9.93959 8.74781 10.8967 8.03061 12.4837 8.03061C14.1555 8.03061 14.7855 8.8329 14.8339 10.0242H16.9055C16.845 8.39529 15.8516 6.90012 13.889 6.41388V4.33523H11.0663V6.38957C9.23694 6.77856 7.77106 7.96983 7.77106 9.80537C7.77106 11.9813 9.57615 13.0753 12.205 13.7074C14.5674 14.2666 15.0399 15.1053 15.0399 15.9805C15.0399 16.6248 14.5674 17.6702 12.4958 17.6702C10.5574 17.6702 9.79421 16.795 9.68518 15.6766H7.60145C7.7226 17.7431 9.24905 18.9101 11.0663 19.2869V21.3534H13.9011V19.3234C15.7425 18.9709 17.1963 17.9133 17.2084 15.9562C17.1963 13.2819 14.9066 12.3581 12.7744 11.7989Z" fill="#4EC690"/>
</svg>
