<svg width="32" height="30" viewBox="0 0 32 30" fill="none" xmlns="http://www.w3.org/2000/svg">
<path d="M21.1735 0.722458C19.352 0.448801 17.4224 2.52537 16.8666 5.39072C16.3109 8.23996 17.3143 10.7834 19.1358 11.0731C20.942 11.3629 22.887 9.2863 23.4582 6.42095C24.0293 3.5717 22.9951 1.02831 21.1735 0.722458ZM10.1362 0.722458C8.29919 1.02831 7.28036 3.5717 7.82065 6.42095C8.40725 9.2863 10.3369 11.3629 12.1584 11.0731C13.9954 10.7834 14.9988 8.23996 14.4276 5.39072C13.8719 2.52537 11.9423 0.448801 10.1362 0.722458ZM29.4322 8.12728C27.6724 7.33851 25.2797 8.77118 24.0293 11.2663C22.8561 13.8097 23.2575 16.4819 25.0018 17.2706C26.7462 18.0594 29.1235 16.6428 30.343 14.1155C31.5625 11.5882 31.1303 8.89996 29.4322 8.12728ZM1.64592 8.12728C-0.0521355 8.89996 -0.484367 11.5882 0.735142 14.1155C1.95465 16.6428 4.33193 18.0594 6.07629 17.2706C7.82065 16.4819 8.22201 13.8097 7.04881 11.2663C5.79842 8.77118 3.40571 7.33851 1.64592 8.12728ZM4.22387 25.4803C4.16212 26.9935 5.27357 28.6676 6.60114 29.2954C9.36433 30.6154 12.6369 27.8788 15.7089 27.8788C18.7808 27.8788 22.0843 30.7281 24.8012 29.2954C26.3448 28.5066 27.41 26.414 27.2093 24.6754C26.9314 22.2769 24.1683 20.9891 22.5319 19.2345C20.3554 16.9648 18.8117 12.699 15.7089 12.699C12.6215 12.699 10.9852 16.9004 8.90123 19.2345C7.18774 21.1984 4.33192 22.8564 4.22387 25.4803Z" fill="white"/>
</svg>
